<svg width="139" height="25" viewBox="0 0 139 25" fill="none" xmlns="http://www.w3.org/2000/svg">
<path d="M37.5011 5.25391H35.2738C33.6969 5.25391 32.4323 5.72968 31.48 6.68122C30.5224 7.63276 30.0488 8.89091 30.0488 10.4557V13.9605C30.0488 15.5041 30.5224 16.757 31.4695 17.7085C32.4167 18.6601 33.6657 19.1358 35.2269 19.1358H37.4803C39.0571 19.1358 40.3217 18.6601 41.2897 17.7085C42.2525 16.757 42.7365 15.5094 42.7365 13.9605V10.4557C42.7365 8.89091 42.2577 7.63276 41.3053 6.68122C40.3478 5.72968 39.0832 5.25391 37.5115 5.25391H37.5011ZM40.2645 13.8548C40.2645 14.7905 40.0095 15.5358 39.4943 16.0909C38.9791 16.646 38.3026 16.9262 37.4491 16.9262H35.2477C34.4151 16.9262 33.7542 16.646 33.2598 16.0909C32.7654 15.5358 32.5156 14.7905 32.5156 13.8548V10.5402C32.5156 9.60457 32.7654 8.85919 33.2702 8.30413C33.775 7.74906 34.4411 7.46888 35.2738 7.46888H37.5011C38.3338 7.46888 38.9999 7.74906 39.5047 8.30413C40.0095 8.85919 40.2593 9.60985 40.2593 10.5402V13.8548H40.2645Z" fill="#0B134F"/>
<path d="M56.0168 16.1332C55.564 16.6618 54.9707 16.9262 54.2265 16.9262H52.1033C51.3226 16.9262 50.6877 16.6618 50.1934 16.1332C49.699 15.6046 49.4492 14.8962 49.4492 14.0187V10.5667C49.4492 9.631 49.6938 8.88034 50.1777 8.3147C50.6669 7.74906 51.2966 7.4636 52.0772 7.4636H54.2005C54.9239 7.4636 55.5068 7.67505 55.9387 8.09796C56.3706 8.52087 56.5892 9.08122 56.5892 9.7843H59.0299C59.0299 8.42043 58.5876 7.32087 57.7029 6.4962C56.8182 5.67153 55.6525 5.25391 54.2005 5.25391H52.0512C50.5316 5.25391 49.3035 5.72968 48.3771 6.68122C47.4456 7.63276 46.9824 8.90148 46.9824 10.4821V14.0927C46.9824 15.6046 47.4508 16.8204 48.3875 17.7455C49.3243 18.6706 50.5524 19.1358 52.0772 19.1358H54.2265C55.6941 19.1358 56.8806 18.6654 57.781 17.7191C58.6813 16.7728 59.134 15.5411 59.134 14.0134H56.6933C56.6933 14.8962 56.4695 15.5993 56.0168 16.1279V16.1332Z" fill="#0B134F"/>
<path d="M85.2226 5.25391H83.0472C81.4912 5.25391 80.237 5.72968 79.2899 6.68122C78.3427 7.63276 77.8691 8.90148 77.8691 10.4821V14.2037C77.8691 15.6786 78.3427 16.868 79.2899 17.7773C80.237 18.6865 81.486 19.1411 83.0472 19.1411H85.0664C86.6068 19.1411 87.8454 18.7288 88.7822 17.8988C89.7189 17.0742 90.1873 15.9852 90.1873 14.6372H87.7726C87.7726 15.3403 87.5228 15.9006 87.0284 16.3235C86.534 16.7464 85.8887 16.9579 85.0925 16.9579H83.0472C82.2354 16.9579 81.5797 16.7041 81.0853 16.2019C80.5909 15.6997 80.3411 15.0336 80.3411 14.209V12.9138H90.2393V10.3817C90.2393 8.83805 89.7814 7.59576 88.8602 6.66007C87.9391 5.72439 86.7265 5.25919 85.2226 5.25919V5.25391ZM87.7726 10.9156H80.3411V10.5085C80.3411 9.57285 80.5909 8.82219 81.0853 8.25655C81.5797 7.69091 82.2354 7.40545 83.0472 7.40545H85.2226C85.9824 7.40545 86.5964 7.67505 87.0648 8.21426C87.5332 8.75347 87.7674 9.47241 87.7674 10.3711V10.9103L87.7726 10.9156Z" fill="#0B134F"/>
<path d="M98.4675 1.39453H96.0267V5.57074H93.6641V7.754H96.0007V14.8218C96.0007 16.2597 96.3234 17.3011 96.9687 17.9514C97.614 18.5963 98.6652 18.924 100.112 18.924H101.918V16.7408H100.221C99.602 16.7408 99.1544 16.5875 98.8786 16.2809C98.6028 15.9743 98.4675 15.4721 98.4675 14.769V7.754H101.918V5.57074H98.4675V1.39453Z" fill="#0B134F"/>
<path d="M117.92 1.09956C117.123 1.87137 116.728 2.99736 116.728 4.47225V5.57181H114.443V7.75507H116.728V18.9198H119.195V7.75507H122.38V5.57181H119.195V4.49868C119.195 3.67401 119.372 3.06608 119.726 2.68018C120.079 2.29427 120.626 2.09868 121.37 2.09868H122.671V0H121.37C119.866 0 118.716 0.327753 117.92 1.09956Z" fill="#0B134F"/>
<path d="M135.942 5.57031V13.6849C135.749 14.6205 135.343 15.3923 134.734 16.0056C134.125 16.6188 133.449 16.9201 132.705 16.9201H131.086C130.482 16.9201 129.993 16.6875 129.613 16.217C129.234 15.7518 129.041 15.1386 129.041 14.3826V5.57031H126.574V14.3298C126.574 15.7677 126.97 16.9254 127.766 17.8082C128.562 18.691 129.608 19.1298 130.899 19.1298H132.621C133.225 19.1298 133.824 18.9395 134.427 18.5641C135.031 18.1888 135.53 17.6813 135.942 17.0523V19.2884C135.942 20.2769 135.718 21.054 135.265 21.6197C134.812 22.1853 134.188 22.4708 133.392 22.4708H131.294C130.748 22.4708 130.285 22.3175 129.915 22.0108C129.546 21.7042 129.332 21.3078 129.28 20.8267H126.814C126.902 21.958 127.36 22.8778 128.182 23.5756C129.005 24.2787 130.045 24.6276 131.3 24.6276H133.397C134.953 24.6276 136.181 24.1518 137.087 23.2003C137.987 22.2487 138.44 20.943 138.44 19.2884V5.57031H135.947H135.942Z" fill="#0B134F"/>
<path d="M109.641 7.75391H107.174V18.9187H109.641V7.75391Z" fill="#0B134F"/>
<path d="M22.7785 10.6501V10.6289C22.2425 10.9567 21.6336 11.1575 20.801 11.1575H19.4375C20.1453 11.1575 20.775 11.406 21.3266 11.9029C21.8782 12.3998 22.2789 13.0818 22.5339 13.9434L24.0015 18.9179H26.666L25.1724 13.8324C24.6468 12.1249 23.8506 11.295 22.7785 10.6501Z" fill="#0B134F"/>
<path d="M14.2179 11.1582H11.6055V18.9186H14.2179V11.1582Z" fill="#0B134F"/>
<path d="M27.2803 5.58655L27.291 5.57031C27.291 5.57031 27.2803 5.58114 27.2803 5.58655Z" fill="#0B134F"/>
<path d="M23.9444 1.45374C23.0441 0.618502 22.2687 0 20.8011 0H11.6055C11.6055 0 13.5154 0.930396 14.1815 2.3207H20.7439C21.4517 2.3207 22.0761 2.40529 22.5133 2.80705C22.9452 3.2141 25.0061 5.57181 25.0061 5.57181H27.2907C27.2907 5.57181 24.8395 2.29427 23.9444 1.45374Z" fill="#0B134F"/>
<path d="M74.9806 5.57181H72.0351L66.0087 11.6405V0H63.542V18.9198H66.0087V14.6062L67.7313 12.8828L72.5659 18.9198H75.4282L69.3498 11.2388L74.9806 5.57181Z" fill="#0B134F"/>
<path d="M109.655 2.65212C109.343 2.34023 108.932 2.18164 108.422 2.18164C107.912 2.18164 107.496 2.34023 107.173 2.65212C106.856 2.96931 106.694 3.37635 106.694 3.87856C106.694 4.38076 106.856 4.79309 107.173 5.10499C107.491 5.42217 107.907 5.57547 108.422 5.57547C108.937 5.57547 109.348 5.41688 109.655 5.10499C109.963 4.79309 110.119 4.38076 110.119 3.87856C110.119 3.37635 109.963 2.96402 109.655 2.65212Z" fill="#99E800"/>
<path d="M13.1716 5.57168C13.1716 4.62542 12.7813 3.7426 12.0996 3.14525C11.4022 2.53732 10.4395 2.26243 9.50791 2.41044C4.98034 3.1241 0.515207 5.30736 0.473574 5.32851L0 5.56111L0.46837 5.80428C0.515207 5.82542 4.95952 8.09326 9.48189 8.84392C9.64322 8.87036 9.80455 8.88621 9.96588 8.88621C10.6945 8.88621 11.4126 8.61661 11.9903 8.11441C12.7501 7.45362 13.1716 6.55494 13.1716 5.57168ZM10.7517 6.75053C10.4342 7.02542 10.0439 7.14172 9.64843 7.07829C8.07678 6.81926 6.25014 6.31177 4.21013 5.57696C5.42269 5.16992 7.56158 4.5197 9.65883 4.18666C10.0908 4.11793 10.5123 4.23952 10.8298 4.51441C11.1316 4.77873 11.2981 5.14877 11.2981 5.56111C11.2981 6.01573 11.1004 6.44921 10.7517 6.75053Z" fill="#99E800"/>
<path d="M22.5133 8.35093C22.0761 8.75798 21.4517 8.83727 20.7439 8.83727H14.1815C14.0358 9.13859 13.8328 9.41877 13.6038 9.67252C12.9117 10.4443 11.9698 10.9677 11.6887 11.1157H11.6835C11.6315 11.1421 11.6055 11.158 11.6055 11.158H20.8011C21.6338 11.158 22.2427 10.9571 22.7787 10.6293C22.7891 10.6293 22.7943 10.6241 22.8047 10.6135C23.2054 10.3756 23.5593 10.0531 23.9444 9.70423C24.9436 8.80555 27.2907 5.57031 27.2907 5.57031H25.0061C25.0061 5.57031 22.8932 7.99674 22.5133 8.35093Z" fill="#99E800"/>
</svg>
