<svg width="48" height="38" viewBox="0 0 48 38" fill="none" xmlns="http://www.w3.org/2000/svg">
<path d="M35.9431 16.1611C35.1109 16.1611 34.4469 16.4133 33.9257 16.9093C33.4129 17.4136 33.1523 18.0609 33.1523 18.8594C33.1523 19.658 33.4129 20.3137 33.9257 20.8096C34.4385 21.314 35.1109 21.5577 35.9431 21.5577C36.7753 21.5577 37.4394 21.3056 37.9353 20.8096C38.4313 20.3137 38.6834 19.658 38.6834 18.8594C38.6834 18.0609 38.4313 17.4052 37.9353 16.9093C37.431 16.4133 36.7669 16.1611 35.9431 16.1611Z" fill="#99E800"/>
<path d="M40.6755 12.3116C40.0535 11.7568 39.4819 11.2441 38.8346 10.8658C38.8178 10.849 38.8094 10.8406 38.7926 10.8406C37.9268 10.3194 36.9433 10 35.5984 10H20.7451C20.7451 10 20.7871 10.0252 20.8712 10.0588H20.8796C21.3335 10.3026 22.855 11.1348 23.973 12.3621C24.3428 12.7655 24.6707 13.2111 24.906 13.6902H35.5059C36.6491 13.6902 37.6578 13.8163 38.3639 14.4635C38.9775 15.0267 42.3903 18.885 42.3903 18.885H46.0805C46.0805 18.885 42.2895 13.7406 40.6755 12.3116Z" fill="#99E800"/>
<path d="M23.2754 18.8774C23.2754 17.3727 22.6449 15.9689 21.5437 15.0191C20.4174 14.0524 18.8623 13.6153 17.3576 13.8507C10.0445 14.9855 2.83219 18.4571 2.76494 18.4907L2 18.8606L2.75653 19.2473C2.83219 19.2809 10.0108 22.887 17.3156 24.0807C17.5762 24.1227 17.8367 24.1479 18.0973 24.1479C19.2742 24.1479 20.4342 23.7192 21.3672 22.9206C22.5945 21.8699 23.2754 20.4409 23.2754 18.8774ZM19.3582 20.7435C18.8454 21.1806 18.215 21.3655 17.5762 21.2647C15.0376 20.8528 12.0871 20.0458 8.79198 18.8774C10.7506 18.2301 14.2054 17.1962 17.593 16.6666C18.2907 16.5574 18.9715 16.7507 19.4843 17.1878C19.9718 17.6081 20.2408 18.1965 20.2408 18.8522C20.2408 19.5751 19.9214 20.2644 19.3582 20.7435Z" fill="#99E800"/>
<path d="M42.3903 18.877C42.3903 18.877 38.9775 22.7353 38.3639 23.2985C37.6578 23.9457 36.6491 24.0718 35.5059 24.0718H24.906C24.6707 24.5509 24.3428 24.9965 23.973 25.3999C22.855 26.6272 21.3335 27.4594 20.8796 27.6948H20.8712C20.7871 27.7368 20.7451 27.762 20.7451 27.762H35.5984C36.9433 27.762 37.9268 27.4426 38.7926 26.9214C38.8094 26.9214 38.8178 26.913 38.8346 26.8962C39.4819 26.5179 40.0535 26.0052 40.6755 25.4504C42.2895 24.0214 46.0805 18.877 46.0805 18.877H42.3903Z" fill="#99E800"/>
</svg>
