<svg width="32" height="32" viewBox="0 0 32 32" fill="none" xmlns="http://www.w3.org/2000/svg">
<rect width="32" height="32" rx="16" fill="#F4F4F4"/>
<path fill-rule="evenodd" clip-rule="evenodd" d="M9 7H23C24.1046 7 25 7.89543 25 9V23C25 24.1046 24.1046 25 23 25H9C7.89543 25 7 24.1046 7 23V9C7 7.89543 7.89543 7 9 7ZM12 22C12.2761 22 12.5 21.7761 12.5 21.5V14.5C12.5 14.2239 12.2761 14 12 14H10.5C10.2239 14 10 14.2239 10 14.5V21.5C10 21.7761 10.2239 22 10.5 22H12ZM11.25 13C10.4216 13 9.75 12.3284 9.75 11.5C9.75 10.6716 10.4216 10 11.25 10C12.0784 10 12.75 10.6716 12.75 11.5C12.75 12.3284 12.0784 13 11.25 13ZM21.5 22C21.7761 22 22 21.7761 22 21.5V16.9C22.0325 15.3108 20.8576 13.9545 19.28 13.76C18.177 13.6593 17.1083 14.1744 16.5 15.1V14.5C16.5 14.2239 16.2761 14 16 14H14.5C14.2239 14 14 14.2239 14 14.5V21.5C14 21.7761 14.2239 22 14.5 22H16C16.2761 22 16.5 21.7761 16.5 21.5V17.75C16.5 16.9216 17.1716 16.25 18 16.25C18.8284 16.25 19.5 16.9216 19.5 17.75V21.5C19.5 21.7761 19.7239 22 20 22H21.5Z" fill="#222A2B"/>
</svg>
