<svg width="22" height="11" viewBox="0 0 22 11" fill="none" xmlns="http://www.w3.org/2000/svg">
<path d="M21.2754 5.40962C21.2754 3.90496 20.6449 2.50117 19.5437 1.55131C18.4174 0.584625 16.8623 0.147518 15.3576 0.382884C8.04446 1.51768 0.832185 4.98932 0.764938 5.02295L0 5.39281L0.756532 5.77948C0.832185 5.8131 8.01083 9.41924 15.3156 10.6129C15.5762 10.6549 15.8367 10.6801 16.0973 10.6801C17.2742 10.6801 18.4342 10.2514 19.3672 9.45286C20.5945 8.40212 21.2754 6.97312 21.2754 5.40962ZM17.3582 7.27573C16.8454 7.71284 16.215 7.89777 15.5762 7.7969C13.0376 7.38501 10.0871 6.57804 6.79198 5.40962C8.75056 4.76236 12.2054 3.72844 15.593 3.19886C16.2907 3.08959 16.9715 3.28292 17.4843 3.72003C17.9718 4.14033 18.2408 4.72874 18.2408 5.3844C18.2408 6.10731 17.9214 6.79659 17.3582 7.27573Z" fill="#99E800"/>
</svg>
