<svg width="167" height="42" viewBox="0 0 167 42" fill="none" xmlns="http://www.w3.org/2000/svg">
<path d="M49.9806 16.2188H47.7533C46.1764 16.2188 44.9118 16.6945 43.9595 17.6461C43.0019 18.5976 42.5283 19.8558 42.5283 21.4205V24.9254C42.5283 26.469 43.0019 27.7218 43.949 28.6734C44.8962 29.6249 46.1452 30.1007 47.7064 30.1007H49.9598C51.5366 30.1007 52.8012 29.6249 53.7692 28.6734C54.732 27.7218 55.2159 26.4743 55.2159 24.9254V21.4205C55.2159 19.8558 54.7372 18.5976 53.7848 17.6461C52.8273 16.6945 51.5627 16.2188 49.991 16.2188H49.9806ZM52.744 24.8196C52.744 25.7553 52.489 26.5007 51.9738 27.0558C51.4586 27.6108 50.782 27.891 49.9286 27.891H47.7272C46.8946 27.891 46.2336 27.6108 45.7393 27.0558C45.2449 26.5007 44.9951 25.7553 44.9951 24.8196V21.5051C44.9951 20.5694 45.2449 19.824 45.7497 19.269C46.2545 18.7139 46.9206 18.4337 47.7533 18.4337H49.9806C50.8133 18.4337 51.4794 18.7139 51.9842 19.269C52.489 19.824 52.7388 20.5747 52.7388 21.5051V24.8196H52.744Z" fill="#0B134F"/>
<path d="M68.4963 27.098C68.0435 27.6267 67.4502 27.891 66.706 27.891H64.5828C63.8021 27.891 63.1672 27.6267 62.6729 27.098C62.1785 26.5694 61.9287 25.861 61.9287 24.9835V21.5315C61.9287 20.5958 62.1733 19.8452 62.6572 19.2795C63.1464 18.7139 63.7761 18.4284 64.5567 18.4284H66.68C67.4034 18.4284 67.9863 18.6399 68.4182 19.0628C68.8501 19.4857 69.0687 20.0461 69.0687 20.7491H71.5094C71.5094 19.3853 71.0671 18.2857 70.1824 17.461C69.2977 16.6364 68.132 16.2188 66.68 16.2188H64.5307C63.0111 16.2188 61.7829 16.6945 60.8566 17.6461C59.9251 18.5976 59.4619 19.8663 59.4619 21.4469V25.0575C59.4619 26.5694 59.9303 27.7853 60.867 28.7104C61.8038 29.6355 63.0319 30.1007 64.5567 30.1007H66.706C68.1736 30.1007 69.3601 29.6302 70.2604 28.6839C71.1608 27.7377 71.6135 26.506 71.6135 24.9782H69.1728C69.1728 25.861 68.949 26.5641 68.4963 27.0928V27.098Z" fill="#0B134F"/>
<path d="M97.702 16.2188H95.5267C93.9707 16.2188 92.7165 16.6945 91.7694 17.6461C90.8222 18.5976 90.3486 19.8663 90.3486 21.4469V25.1685C90.3486 26.6434 90.8222 27.8328 91.7694 28.7421C92.7165 29.6514 93.9655 30.106 95.5267 30.106H97.5459C99.0863 30.106 100.325 29.6936 101.262 28.8637C102.198 28.039 102.667 26.95 102.667 25.602H100.252C100.252 26.3051 100.002 26.8654 99.5079 27.2884C99.0135 27.7113 98.3682 27.9227 97.5719 27.9227H95.5267C94.7149 27.9227 94.0592 27.669 93.5648 27.1668C93.0704 26.6646 92.8206 25.9985 92.8206 25.1738V23.8787H102.719V21.3465C102.719 19.8029 102.261 18.5606 101.34 17.6249C100.419 16.6892 99.206 16.224 97.702 16.224V16.2188ZM100.252 21.8804H92.8206V21.4734C92.8206 20.5377 93.0704 19.787 93.5648 19.2214C94.0592 18.6558 94.7149 18.3703 95.5267 18.3703H97.702C98.4618 18.3703 99.0759 18.6399 99.5443 19.1791C100.013 19.7183 100.247 20.4373 100.247 21.3359V21.8751L100.252 21.8804Z" fill="#0B134F"/>
<path d="M110.946 12.3594H108.505V16.5356H106.143V18.7188H108.479V25.7867C108.479 27.2246 108.802 28.266 109.447 28.9162C110.092 29.5611 111.144 29.8889 112.59 29.8889H114.396V27.7056H112.7C112.08 27.7056 111.633 27.5523 111.357 27.2457C111.081 26.9391 110.946 26.4369 110.946 25.7338V18.7188H114.396V16.5356H110.946V12.3594Z" fill="#0B134F"/>
<path d="M130.399 12.0644C129.603 12.8362 129.207 13.9622 129.207 15.4371V16.5367H126.923V18.7199H129.207V29.8847H131.674V18.7199H134.859V16.5367H131.674V15.4635C131.674 14.6389 131.851 14.0309 132.205 13.645C132.559 13.2591 133.105 13.0635 133.85 13.0635H135.151V10.9648H133.85C132.346 10.9648 131.195 11.2926 130.399 12.0644Z" fill="#0B134F"/>
<path d="M148.421 16.5352V24.6497C148.229 25.5854 147.823 26.3572 147.214 26.9704C146.605 27.5836 145.928 27.8849 145.184 27.8849H143.566C142.962 27.8849 142.473 27.6523 142.093 27.1819C141.713 26.7167 141.52 26.1034 141.52 25.3475V16.5352H139.054V25.2946C139.054 26.7325 139.449 27.8902 140.245 28.773C141.042 29.6559 142.088 30.0946 143.378 30.0946H145.101C145.705 30.0946 146.303 29.9043 146.907 29.529C147.51 29.1537 148.01 28.6462 148.421 28.0171V30.2532C148.421 31.2418 148.197 32.0189 147.745 32.5845C147.292 33.1501 146.667 33.4356 145.871 33.4356H143.774C143.227 33.4356 142.764 33.2823 142.395 32.9757C142.025 32.6691 141.812 32.2726 141.76 31.7915H139.293C139.382 32.9228 139.84 33.8426 140.662 34.5404C141.484 35.2435 142.525 35.5924 143.779 35.5924H145.876C147.432 35.5924 148.66 35.1167 149.566 34.1651C150.466 33.2136 150.919 31.9078 150.919 30.2532V16.5352H148.426H148.421Z" fill="#0B134F"/>
<path d="M122.12 18.7188H119.653V29.8835H122.12V18.7188Z" fill="#0B134F"/>
<path d="M35.258 21.6149V21.5938C34.722 21.9215 34.1131 22.1224 33.2805 22.1224H31.917C32.6248 22.1224 33.2544 22.3708 33.8061 22.8678C34.3577 23.3647 34.7584 24.0466 35.0134 24.9083L36.481 29.8827H39.1455L37.6519 24.7973C37.1263 23.0898 36.3301 22.2598 35.258 21.6149Z" fill="#0B134F"/>
<path d="M26.6974 22.123H24.085V29.8834H26.6974V22.123Z" fill="#0B134F"/>
<path d="M39.7598 16.5514L39.7705 16.5352C39.7705 16.5352 39.7598 16.546 39.7598 16.5514Z" fill="#0B134F"/>
<path d="M36.4239 12.4186C35.5236 11.5833 34.7482 10.9648 33.2806 10.9648H24.085C24.085 10.9648 25.9949 11.8952 26.661 13.2855H33.2234C33.9311 13.2855 34.5556 13.3701 34.9928 13.7719C35.4247 14.1789 37.4856 16.5367 37.4856 16.5367H39.7702C39.7702 16.5367 37.319 13.2591 36.4239 12.4186Z" fill="#0B134F"/>
<path d="M87.4601 16.5367H84.5146L78.4882 22.6054V10.9648H76.0215V29.8847H78.4882V25.571L80.2108 23.8477L85.0454 29.8847H87.9077L81.8293 22.2036L87.4601 16.5367Z" fill="#0B134F"/>
<path d="M122.135 13.617C121.823 13.3051 121.412 13.1465 120.902 13.1465C120.392 13.1465 119.975 13.3051 119.653 13.617C119.335 13.9341 119.174 14.3412 119.174 14.8434C119.174 15.3456 119.335 15.7579 119.653 16.0698C119.97 16.387 120.386 16.5403 120.902 16.5403C121.417 16.5403 121.828 16.3817 122.135 16.0698C122.442 15.7579 122.598 15.3456 122.598 14.8434C122.598 14.3412 122.442 13.9289 122.135 13.617Z" fill="#99E800"/>
<path d="M25.6511 16.5365C25.6511 15.5903 25.2608 14.7074 24.5791 14.1101C23.8817 13.5022 22.9189 13.2273 21.9874 13.3753C17.4598 14.0889 12.9947 16.2722 12.9531 16.2933L12.4795 16.5259L12.9479 16.7691C12.9947 16.7903 17.439 19.0581 21.9614 19.8088C22.1227 19.8352 22.284 19.8511 22.4454 19.8511C23.1739 19.8511 23.8921 19.5815 24.4698 19.0793C25.2296 18.4185 25.6511 17.5198 25.6511 16.5365ZM23.2312 17.7154C22.9137 17.9903 22.5234 18.1066 22.1279 18.0431C20.5563 17.7841 18.7296 17.2766 16.6896 16.5418C17.9022 16.1348 20.0411 15.4845 22.1383 15.1515C22.5703 15.0828 22.9918 15.2044 23.3093 15.4793C23.6111 15.7436 23.7776 16.1136 23.7776 16.5259C23.7776 16.9806 23.5799 17.4141 23.2312 17.7154Z" fill="#99E800"/>
<path d="M34.9928 19.3158C34.5556 19.7228 33.9311 19.8021 33.2234 19.8021H26.661C26.5153 20.1034 26.3123 20.3836 26.0833 20.6374C25.3912 21.4092 24.4492 21.9325 24.1682 22.0805H24.163C24.111 22.107 24.085 22.1228 24.085 22.1228H33.2806C34.1133 22.1228 34.7222 21.9219 35.2582 21.5942C35.2686 21.5942 35.2738 21.5889 35.2842 21.5783C35.6849 21.3404 36.0388 21.018 36.4239 20.6691C37.4231 19.7704 39.7702 16.5352 39.7702 16.5352H37.4856C37.4856 16.5352 35.3727 18.9616 34.9928 19.3158Z" fill="#99E800"/>
</svg>
