<svg width="54" height="22" viewBox="0 0 54 22" fill="none" xmlns="http://www.w3.org/2000/svg">
<path d="M41.1989 7.76465C40.2089 7.76465 39.4189 8.06465 38.7989 8.65465C38.1889 9.25465 37.8789 10.0246 37.8789 10.9746C37.8789 11.9246 38.1889 12.7046 38.7989 13.2946C39.4089 13.8946 40.2089 14.1846 41.1989 14.1846C42.1889 14.1846 42.9789 13.8846 43.5689 13.2946C44.1589 12.7046 44.4589 11.9246 44.4589 10.9746C44.4589 10.0246 44.1589 9.24465 43.5689 8.65465C42.9689 8.06465 42.1789 7.76465 41.1989 7.76465Z" fill="#222A2B"/>
<path d="M46.8291 3.18457C46.0891 2.52457 45.4091 1.91457 44.6391 1.46457C44.6191 1.44457 44.6091 1.43457 44.5891 1.43457C43.5591 0.81457 42.3891 0.43457 40.7891 0.43457H23.1191C23.1191 0.43457 23.1691 0.46457 23.2691 0.50457H23.2791C23.8191 0.79457 25.6291 1.78457 26.9591 3.24457C27.3991 3.72457 27.7891 4.25457 28.0691 4.82457H40.6791C42.0391 4.82457 43.2391 4.97457 44.0791 5.74457C44.8091 6.41457 48.8691 11.0046 48.8691 11.0046H53.2591C53.2591 11.0046 48.7491 4.88457 46.8291 3.18457Z" fill="#222A2B"/>
<path d="M26.1293 10.9949C26.1293 9.20487 25.3793 7.53487 24.0693 6.40487C22.7293 5.25487 20.8793 4.73487 19.0893 5.01487C10.3893 6.36487 1.80934 10.4949 1.72934 10.5349L0.819336 10.9749L1.71934 11.4349C1.80934 11.4749 10.3493 15.7649 19.0393 17.1849C19.3493 17.2349 19.6593 17.2649 19.9693 17.2649C21.3693 17.2649 22.7493 16.7549 23.8593 15.8049C25.3193 14.5549 26.1293 12.8549 26.1293 10.9949ZM21.4693 13.2149C20.8593 13.7349 20.1093 13.9549 19.3493 13.8349C16.3293 13.3449 12.8193 12.3849 8.89934 10.9949C11.2293 10.2249 15.3393 8.99487 19.3693 8.36487C20.1993 8.23487 21.0093 8.46486 21.6193 8.98486C22.1993 9.48486 22.5193 10.1849 22.5193 10.9649C22.5193 11.8249 22.1393 12.6449 21.4693 13.2149Z" fill="#222A2B"/>
<path d="M48.8691 10.9951C48.8691 10.9951 44.8091 15.5851 44.0791 16.2551C43.2391 17.0251 42.0391 17.1751 40.6791 17.1751H28.0691C27.7891 17.7451 27.3991 18.2751 26.9591 18.7551C25.6291 20.2151 23.8191 21.2051 23.2791 21.4851H23.2691C23.1691 21.5351 23.1191 21.5651 23.1191 21.5651H40.7891C42.3891 21.5651 43.5591 21.1851 44.5891 20.5651C44.6091 20.5651 44.6191 20.5551 44.6391 20.5351C45.4091 20.0851 46.0891 19.4751 46.8291 18.8151C48.7491 17.1151 53.2591 10.9951 53.2591 10.9951H48.8691Z" fill="#222A2B"/>
</svg>
